<svg width="14" height="12" viewBox="0 0 14 12" fill="none" xmlns="http://www.w3.org/2000/svg">
<ellipse cx="8.33342" cy="6.66667" rx="2.66667" ry="2.66667" stroke="#0A0C20" stroke-opacity="0.4"/>
<path d="M3 4.66669H3.66667" stroke="#0A0C20" stroke-opacity="0.4" stroke-linecap="round"/>
<path d="M1.83333 2.00002C1.83333 2.27616 2.05719 2.50002 2.33333 2.50002C2.60948 2.50002 2.83333 2.27616 2.83333 2.00002H1.83333ZM5.16667 2.00002C5.16667 2.27616 5.39052 2.50002 5.66667 2.50002C5.94281 2.50002 6.16667 2.27616 6.16667 2.00002H5.16667ZM12.5 3.66669V9.66669H13.5V3.66669H12.5ZM11.3333 10.8334H2.66667V11.8334H11.3333V10.8334ZM1.5 9.66669V3.66669H0.5V9.66669H1.5ZM2.66667 10.8334C2.02233 10.8334 1.5 10.311 1.5 9.66669H0.5C0.5 10.8633 1.47005 11.8334 2.66667 11.8334V10.8334ZM12.5 9.66669C12.5 10.311 11.9777 10.8334 11.3333 10.8334V11.8334C12.53 11.8334 13.5 10.8633 13.5 9.66669H12.5ZM11.3333 2.50002C11.9777 2.50002 12.5 3.02235 12.5 3.66669H13.5C13.5 2.47007 12.53 1.50002 11.3333 1.50002V2.50002ZM2.66667 1.50002C1.47005 1.50002 0.5 2.47007 0.5 3.66669H1.5C1.5 3.02235 2.02233 2.50002 2.66667 2.50002V1.50002ZM2.83333 2.00002V1.66669H1.83333V2.00002H2.83333ZM3.33333 1.16669H4.66667V0.166687H3.33333V1.16669ZM5.16667 1.66669V2.00002H6.16667V1.66669H5.16667ZM4.66667 1.16669C4.94281 1.16669 5.16667 1.39054 5.16667 1.66669H6.16667C6.16667 0.83826 5.49509 0.166687 4.66667 0.166687V1.16669ZM2.83333 1.66669C2.83333 1.39054 3.05719 1.16669 3.33333 1.16669V0.166687C2.50491 0.166687 1.83333 0.83826 1.83333 1.66669H2.83333ZM2.66667 2.50002H7V1.50002H2.66667V2.50002ZM7 2.50002H9.16667V1.50002H7V2.50002ZM9.16667 2.50002H11.3333V1.50002H9.16667V2.50002Z" fill="#0A0C20"/>
</svg>
