<svg width="16" height="16" viewBox="0 0 16 16" fill="none" xmlns="http://www.w3.org/2000/svg">
<path d="M3.33325 3.16669H9.33325C10.1617 3.16669 10.8333 3.83826 10.8333 4.66669V9.33335C10.8333 10.1618 10.1617 10.8334 9.33325 10.8334H3.33325C2.50482 10.8334 1.83325 10.1618 1.83325 9.33335V4.66669C1.83325 3.83826 2.50482 3.16669 3.33325 3.16669Z" stroke="#0A0C20" stroke-opacity="0.4" stroke-linecap="round" stroke-linejoin="round"/>
<path d="M11.3333 7.25759C11.3333 6.56304 11.8963 6 12.5908 6V6C12.997 6 13.3781 6.19614 13.6142 6.52663L14.2941 7.47845C14.5363 7.81766 14.6666 8.22408 14.6666 8.64093V9.66667C14.6666 10.5871 13.9204 11.3333 12.9999 11.3333V11.3333C12.0794 11.3333 11.3333 10.5871 11.3333 9.66667V7.25759Z" stroke="#0A0C20" stroke-linecap="round"/>
<path d="M3.66675 13.3333C4.21903 13.3333 4.66675 12.8856 4.66675 12.3333C4.66675 11.781 4.21903 11.3333 3.66675 11.3333C3.11446 11.3333 2.66675 11.781 2.66675 12.3333C2.66675 12.8856 3.11446 13.3333 3.66675 13.3333Z" stroke="#0A0C20" stroke-linecap="round"/>
<path d="M12.3333 13.3333C12.8855 13.3333 13.3333 12.8856 13.3333 12.3333C13.3333 11.781 12.8855 11.3333 12.3333 11.3333C11.781 11.3333 11.3333 11.781 11.3333 12.3333C11.3333 12.8856 11.781 13.3333 12.3333 13.3333Z" stroke="#0A0C20" stroke-linecap="round"/>
</svg>
