<svg width="12" height="14" viewBox="0 0 12 14" fill="none" xmlns="http://www.w3.org/2000/svg">
<path d="M11.3332 9.37334V4.6326C11.333 4.42476 11.2781 4.22064 11.1741 4.0407C11.0701 3.86076 10.9206 3.71134 10.7406 3.60742L6.59243 1.23705C6.41226 1.13303 6.20788 1.07826 5.99984 1.07826C5.79179 1.07826 5.58742 1.13303 5.40724 1.23705L1.2591 3.60742C1.0791 3.71134 0.929603 3.86076 0.825592 4.0407C0.721581 4.22064 0.666717 4.42476 0.666504 4.6326V9.37334C0.666717 9.58118 0.721581 9.78531 0.825592 9.96525C0.929603 10.1452 1.0791 10.2946 1.2591 10.3985L5.40724 12.7689C5.58742 12.8729 5.79179 12.9277 5.99984 12.9277C6.20788 12.9277 6.41226 12.8729 6.59243 12.7689L10.7406 10.3985C10.9206 10.2946 11.0701 10.1452 11.1741 9.96525C11.2781 9.78531 11.333 9.58118 11.3332 9.37334Z" stroke="#0A0C20" stroke-opacity="0.4" stroke-linecap="round" stroke-linejoin="round"/>
<path d="M0.826172 4.01631L5.9995 7.0089L11.1728 4.01631" stroke="#0A0C20" stroke-linecap="round" stroke-linejoin="round"/>
<path d="M6 12.9763V7.00301" stroke="#0A0C20" stroke-linecap="round" stroke-linejoin="round"/>
</svg>
