<svg width="12" height="12" viewBox="0 0 12 12" fill="none" xmlns="http://www.w3.org/2000/svg">
<path d="M2 8H4C4.36819 8 4.66667 8.29848 4.66667 8.66667V8.66667C4.66667 9.03486 4.96514 9.33333 5.33333 9.33333H6.66667C7.03486 9.33333 7.33333 9.03486 7.33333 8.66667V8.66667C7.33333 8.29848 7.63181 8 8 8H10" stroke="#0A0C20" stroke-opacity="0.4" stroke-linecap="square"/>
<path d="M8.67949 11.3334H3.32011C2.24338 11.3334 1.38991 10.4249 1.45708 9.35025L1.89041 2.41691C1.9519 1.43312 2.76773 0.666687 3.75344 0.666687H8.24616C9.23188 0.666687 10.0477 1.43312 10.1092 2.41691L10.5425 9.35025C10.6097 10.4249 9.75622 11.3334 8.67949 11.3334Z" stroke="#0A0C20" stroke-linecap="round"/>
<path d="M4 5.33337H8" stroke="#0A0C20" stroke-opacity="0.4" stroke-linecap="round"/>
<path d="M4.6665 3.33337H7.33317" stroke="#0A0C20" stroke-opacity="0.4" stroke-linecap="round"/>
</svg>
