<svg width="12" height="12" viewBox="0 0 12 12" fill="none" xmlns="http://www.w3.org/2000/svg">
<path d="M7.33045 5.77318L10.7333 3.28105C11.1122 3.00358 11.3334 2.57934 11.3334 2.13024C11.3334 1.32194 10.6304 0.666687 9.76324 0.666687H2.34951C1.42015 0.666687 0.666748 1.36893 0.666748 2.23518C0.666748 2.62537 0.822777 3.00155 1.10437 3.29026L3.51464 5.76152" stroke="#0A0C20"/>
<path d="M7.33047 5.77313C6.90856 6.08212 6.6497 6.54539 6.61994 7.04474L6.40796 10.6012C6.37372 11.1758 5.70277 11.5159 5.16676 11.2304L4.58343 10.9197C4.22271 10.7275 4.00009 10.37 4.00009 9.98274V6.93186C4.00009 6.49903 3.82701 6.08174 3.51465 5.76147" stroke="#0A0C20" stroke-opacity="0.4"/>
</svg>
