<svg width="15" height="15" viewBox="0 0 15 15" fill="none" xmlns="http://www.w3.org/2000/svg">
<path d="M2.92232 9.43087V9.43087C2.19912 9.56955 1.50043 9.09569 1.36175 8.37249L0.860546 5.75863C0.569329 4.2399 1.56416 2.7727 3.08289 2.48148C3.92438 2.32013 4.82423 2.14758 5.57116 2.00436C6.46937 1.83213 7.59188 1.63395 8.5685 1.46583C9.82394 1.24972 11.0166 2.08221 11.2565 3.33332V3.33332" stroke="#0A0C20" stroke-opacity="0.4" stroke-linecap="round"/>
<path d="M3 5.5334V10.3334C3 11.0698 3.59695 11.6667 4.33333 11.6667H4.49505C4.77392 11.6667 5 11.8928 5 12.1717C5 12.7214 5.0464 13.5347 5.59593 13.5193C5.96875 13.5089 6.10201 13.0531 6.30477 12.7401C6.73829 12.0708 7.48141 11.6667 8.27885 11.6667H11.8C12.8309 11.6667 13.6667 10.8311 13.6667 9.80022V5.57781C13.6667 4.56975 13.0078 3.69104 12 3.66673C10.9142 3.64053 9.4002 3.66674 8.33333 3.66674H4.86639C3.83546 3.66674 3 4.50247 3 5.5334Z" stroke="#0A0C20" stroke-linecap="round"/>
<ellipse cx="5.66667" cy="7.66667" rx="0.666667" ry="0.666667" fill="#0A0C20" fill-opacity="0.4"/>
<circle cx="8.33317" cy="7.66667" r="0.666667" fill="#0A0C20" fill-opacity="0.4"/>
<ellipse cx="10.9999" cy="7.66667" rx="0.666667" ry="0.666667" fill="#0A0C20" fill-opacity="0.4"/>
</svg>
