<svg width="16" height="16" viewBox="0 0 16 16" fill="none" xmlns="http://www.w3.org/2000/svg">
<g clip-path="url(#clip0)">
<path d="M0 8C0 3.58172 3.58172 0 8 0C12.4183 0 16 3.58172 16 8C16 12.4183 12.4183 16 8 16C3.58172 16 0 12.4183 0 8Z" fill="#005BFF"/>
<path d="M7.00317 17.0826L8.08259 7.42472C9.28279 6.65021 10.2793 6.55364 11.1693 7.34898L20.1266 17.0826L7.00317 17.0826Z" fill="#F91155"/>
<g clip-path="url(#clip1)">
<path fill-rule="evenodd" clip-rule="evenodd" d="M1.79834 8.41254C1.45244 8.47265 1.13366 8.63842 0.885798 8.88706C0.63794 9.1357 0.473175 9.45501 0.414151 9.80109C0.355128 10.1472 0.404743 10.503 0.556177 10.8198C0.707611 11.1365 0.95343 11.3986 1.25985 11.57C1.56626 11.7413 1.91823 11.8136 2.26738 11.7768C2.61652 11.74 2.9457 11.596 3.20968 11.3645C3.47365 11.133 3.65945 10.8255 3.74154 10.4842C3.82364 10.1428 3.79799 9.78441 3.66813 9.45823C3.52417 9.09555 3.25964 8.79356 2.91907 8.60309C2.5785 8.41263 2.18271 8.34533 1.79834 8.41254ZM2.45353 10.9182C2.27979 10.9938 2.08674 11.013 1.90151 10.9732C1.71627 10.9334 1.54816 10.8366 1.4208 10.6963C1.29344 10.556 1.21324 10.3794 1.19146 10.1912C1.16969 10.003 1.20743 9.81266 1.2994 9.64702C1.39136 9.48137 1.53292 9.3487 1.70417 9.26766C1.87543 9.18662 2.06778 9.16128 2.25418 9.1952C2.44058 9.22912 2.61167 9.3206 2.7434 9.45678C2.87513 9.59295 2.96087 9.76698 2.98858 9.95441C3.01779 10.1515 2.9812 10.3528 2.88447 10.527C2.78774 10.7012 2.63628 10.8387 2.45353 10.9182ZM4.14583 7.81496C4.08918 7.83121 4.03686 7.85989 3.99269 7.89891C3.94851 7.93793 3.9136 7.98631 3.89047 8.04052C3.86735 8.09474 3.8566 8.15342 3.85902 8.21231C3.86143 8.2712 3.87694 8.32881 3.90442 8.38095C3.99138 8.55046 4.19415 8.62552 4.377 8.57353L5.43812 8.27181L4.40814 10.9267C4.40052 10.9463 4.3985 10.9676 4.40232 10.9883C4.40615 11.009 4.41566 11.0282 4.42979 11.0438C4.44392 11.0594 4.46211 11.0707 4.48232 11.0766C4.50254 11.0824 4.52398 11.0825 4.54423 11.0768L7.13453 10.3403C7.31726 10.2883 7.45033 10.1178 7.43509 9.92787C7.43103 9.86908 7.41392 9.81193 7.385 9.76058C7.35609 9.70923 7.31609 9.66498 7.26791 9.63103C7.21974 9.59709 7.16461 9.57431 7.10653 9.56435C7.04845 9.55438 6.98887 9.55749 6.93214 9.57345L5.63925 9.94106L6.66844 7.28825C6.67614 7.26845 6.67818 7.2469 6.67431 7.22602C6.67045 7.20513 6.66084 7.18573 6.64657 7.17C6.63229 7.15427 6.61392 7.14283 6.5935 7.13696C6.57309 7.13109 6.55144 7.13102 6.53099 7.13677L4.14583 7.81496ZM14.499 4.88069C14.419 4.92547 14.3568 4.99619 14.3224 5.08117C14.2881 5.16615 14.2839 5.26029 14.3103 5.34803L14.6714 6.61781L12.1483 5.5655C12.1285 5.55728 12.1068 5.55481 12.0857 5.55837C12.0646 5.56194 12.0449 5.57139 12.0289 5.58564C12.0129 5.5999 12.0013 5.61838 11.9953 5.63895C11.9894 5.65953 11.9894 5.68136 11.9953 5.70195L12.7408 8.32376C12.7644 8.4123 12.8176 8.49011 12.8915 8.54432C12.9654 8.59854 13.0555 8.62591 13.1471 8.62191C13.2063 8.61833 13.2639 8.60151 13.3157 8.57269C13.3675 8.54388 13.4122 8.5038 13.4464 8.45541C13.4807 8.40703 13.5036 8.35157 13.5136 8.29313C13.5235 8.23469 13.5202 8.17477 13.504 8.11777L13.1398 6.837L15.6629 7.88934C15.6827 7.89755 15.7044 7.90002 15.7255 7.89645C15.7466 7.89289 15.7662 7.88344 15.7822 7.86919C15.7982 7.85494 15.8098 7.83647 15.8158 7.81591C15.8217 7.79534 15.8217 7.77351 15.8158 7.75294L15.0676 5.12155C15.0515 5.06453 15.0228 5.01186 14.9835 4.96742C14.9443 4.92298 14.8956 4.88791 14.8411 4.8648C14.7865 4.84168 14.7274 4.83111 14.6682 4.83386C14.609 4.83661 14.5512 4.85262 14.499 4.88069ZM9.33538 7.08479C10.2057 6.83734 10.9867 7.11235 11.1037 7.52374C11.2206 7.93513 10.7011 8.57993 9.83086 8.82738C8.96058 9.07483 8.17955 8.79981 8.06258 8.38842C7.94561 7.97704 8.4651 7.33224 9.33538 7.08479ZM9.11854 6.32217C7.85886 6.68034 7.04571 7.70223 7.30228 8.6046C7.55886 9.50698 8.78801 9.94816 10.0477 9.58999C11.3074 9.23182 12.1205 8.20995 11.8639 7.30757C11.6073 6.40519 10.3782 5.96401 9.11854 6.32217Z" fill="white"/>
</g>
</g>
<path d="M8 15C4.13401 15 1 11.866 1 8H-1C-1 12.9706 3.02944 17 8 17V15ZM15 8C15 11.866 11.866 15 8 15V17C12.9706 17 17 12.9706 17 8H15ZM8 1C11.866 1 15 4.13401 15 8H17C17 3.02944 12.9706 -1 8 -1V1ZM8 -1C3.02944 -1 -1 3.02944 -1 8H1C1 4.13401 4.13401 1 8 1V-1Z" fill="white"/>
<defs>
<clipPath id="clip0">
<path d="M0 8C0 3.58172 3.58172 0 8 0C12.4183 0 16 3.58172 16 8C16 12.4183 12.4183 16 8 16C3.58172 16 0 12.4183 0 8Z" fill="white"/>
</clipPath>
<clipPath id="clip1">
<rect width="15.5305" height="3.39953" fill="white" transform="translate(0 8.91406) rotate(-15.8723)"/>
</clipPath>
</defs>
</svg>
