<svg width="16" height="16" viewBox="0 0 16 16" fill="none" xmlns="http://www.w3.org/2000/svg">
<path d="M6.85989 2.57347L1.21323 12.0001C1.0968 12.2018 1.0352 12.4303 1.03455 12.6631C1.0339 12.896 1.09422 13.1249 1.20951 13.3272C1.3248 13.5294 1.49104 13.698 1.6917 13.816C1.89235 13.9341 2.12042 13.9976 2.35323 14.0001H13.6466C13.8794 13.9976 14.1074 13.9341 14.3081 13.816C14.5087 13.698 14.675 13.5294 14.7903 13.3272C14.9056 13.1249 14.9659 12.896 14.9652 12.6631C14.9646 12.4303 14.903 12.2018 14.7866 12.0001L9.13989 2.57347C9.02104 2.37754 8.85371 2.21555 8.65402 2.10313C8.45434 1.9907 8.22905 1.93164 7.99989 1.93164C7.77073 1.93164 7.54545 1.9907 7.34576 2.10313C7.14608 2.21555 6.97874 2.37754 6.85989 2.57347V2.57347Z" stroke="#0A0C20" stroke-opacity="0.6" stroke-width="1.33333" stroke-linecap="round" stroke-linejoin="round"/>
<path d="M8 6V8.66667" stroke="#0A0C20" stroke-opacity="0.6" stroke-width="1.33333" stroke-linecap="round" stroke-linejoin="round"/>
<path d="M8 11.3335H8.0075" stroke="#0A0C20" stroke-opacity="0.6" stroke-width="1.33333" stroke-linecap="round" stroke-linejoin="round"/>
</svg>
