<svg width="16" height="16" viewBox="0 0 16 16" fill="none" xmlns="http://www.w3.org/2000/svg">
<path d="M0 8C0 3.58172 3.58172 0 8 0C12.4183 0 16 3.58172 16 8C16 12.4183 12.4183 16 8 16C3.58172 16 0 12.4183 0 8Z" fill="url(#paint0_linear)"/>
<path fill-rule="evenodd" clip-rule="evenodd" d="M3.3335 6C3.58063 6.00252 3.82737 6.00036 4.0745 6.00108C4.36501 7.00063 4.65165 8.0009 4.94255 9.00009C4.95262 9.03787 4.96231 9.07637 4.97857 9.11235C5.00569 9.05442 5.01925 8.99253 5.039 8.93281C5.29775 8.111 5.55457 7.28812 5.81138 6.46595C5.86173 6.31088 5.90473 6.154 5.95973 6.00036C6.17626 6.0036 6.39318 5.99892 6.60971 6.00288C6.89674 6.92687 7.18415 7.85086 7.47118 8.77485C7.50565 8.88855 7.54361 9.00189 7.57499 9.11631C7.58196 9.10515 7.59009 9.09508 7.59435 9.08285C7.88952 8.05523 8.18971 7.02869 8.48449 6.00108C8.73317 6.00144 8.98184 6.00036 9.23091 6.00108C9.13369 6.29972 9.04731 6.60124 8.95395 6.9006C8.69366 7.75731 8.43297 8.61366 8.17189 9.47C8.11534 9.64595 8.06886 9.82513 8.00804 10C7.74387 9.99676 7.47931 10 7.21475 9.99856C7.18764 10.0022 7.18725 9.97158 7.18028 9.95538C6.88124 8.99757 6.58182 8.0394 6.28395 7.08123C6.24134 7.19025 6.215 7.30431 6.17588 7.41441C5.90783 8.27292 5.63668 9.1307 5.36902 9.98957L5.36438 9.99784C5.09284 10.0014 4.82131 9.99784 4.55016 10C4.45023 9.69344 4.3623 9.38365 4.26662 9.07565C3.95752 8.06387 3.65074 7.051 3.34163 6.03922C3.33931 6.02591 3.33621 6.01295 3.3335 6ZM9.53111 6.00144C10.1048 6.00036 10.6784 6.00072 11.2525 6.00072C11.4772 5.9982 11.7026 6.05217 11.8982 6.15544C12.1043 6.2695 12.2809 6.43429 12.3894 6.63398C12.4936 6.83044 12.5191 7.0564 12.4901 7.27193C12.4614 7.47054 12.365 7.66124 12.2127 7.80372C12.1686 7.84834 12.1163 7.88504 12.0675 7.92498C12.2491 8.01601 12.4091 8.14842 12.5141 8.31429C12.6105 8.46325 12.6597 8.63596 12.6659 8.80903C12.6729 8.99901 12.6396 9.19367 12.5447 9.3635C12.4537 9.53657 12.3061 9.67941 12.1368 9.78843C11.9757 9.8935 11.7863 9.96042 11.591 9.98381C11.4547 10.0029 11.3164 9.99712 11.1793 9.99784C10.8551 9.99748 10.5309 9.9982 10.2066 9.9982C9.9816 9.9964 9.75616 10.0018 9.53111 9.99568C9.53459 8.76082 9.5315 7.52559 9.53227 6.29073C9.5315 6.1943 9.53421 6.09787 9.53111 6.00144ZM10.2423 6.61168C10.2345 6.65125 10.2369 6.69155 10.2372 6.73149C10.238 7.04417 10.2365 7.3572 10.238 7.67023C10.5274 7.67023 10.8167 7.66952 11.1061 7.66988C11.1932 7.66952 11.2815 7.67347 11.3672 7.65584C11.469 7.63641 11.5631 7.58604 11.636 7.51732C11.8405 7.3259 11.8494 6.98696 11.6553 6.78654C11.5585 6.68112 11.4121 6.62139 11.2645 6.61455C10.9236 6.61204 10.5828 6.61743 10.2423 6.61168ZM10.238 8.26248C10.2372 8.46721 10.238 8.6723 10.2376 8.8774C10.2396 9.04615 10.2338 9.21526 10.2407 9.38401C10.5576 9.38041 10.8744 9.38401 11.1917 9.38293C11.3152 9.38077 11.4423 9.39372 11.5612 9.35558C11.7468 9.29873 11.8955 9.14941 11.9416 8.97346C11.9842 8.82702 11.9617 8.66511 11.88 8.53378C11.7789 8.36359 11.5709 8.25421 11.3617 8.26176C10.9872 8.26212 10.6126 8.26032 10.238 8.26248Z" fill="#FFFFFE"/>
<path d="M8 15C4.13401 15 1 11.866 1 8H-1C-1 12.9706 3.02944 17 8 17V15ZM15 8C15 11.866 11.866 15 8 15V17C12.9706 17 17 12.9706 17 8H15ZM8 1C11.866 1 15 4.13401 15 8H17C17 3.02944 12.9706 -1 8 -1V1ZM8 -1C3.02944 -1 -1 3.02944 -1 8H1C1 4.13401 4.13401 1 8 1V-1Z" fill="white"/>
<defs>
<linearGradient id="paint0_linear" x1="3.16841e-08" y1="10.138" x2="15.9766" y2="3.87473" gradientUnits="userSpaceOnUse">
<stop stop-color="#B512A3"/>
<stop offset="1" stop-color="#491174"/>
</linearGradient>
</defs>
</svg>
