<svg width="120" height="32" viewBox="0 0 120 32" fill="none" xmlns="http://www.w3.org/2000/svg">
<path d="M38.9419 19.4656C38.54 19.4656 38.339 19.4656 38.2137 19.3407C38.0884 19.2159 38.0884 19.0151 38.0884 18.6134V17.7861C38.0884 17.3844 38.0884 17.1836 38.2137 17.0588C38.339 16.9339 38.54 16.9339 38.9419 16.9339H40.3033C41.2651 16.9339 41.9853 17.4684 41.9853 18.1912C41.9853 18.9322 41.264 19.4667 40.3033 19.4667H38.9419V19.4656ZM38.9419 14.6928C38.54 14.6928 38.339 14.6928 38.2137 14.568C38.0884 14.4431 38.0884 14.2423 38.0884 13.8406V13.2199C38.0884 12.8182 38.0884 12.6173 38.2137 12.4925C38.339 12.3677 38.54 12.3677 38.9419 12.3677H40.0628C40.9897 12.3677 41.6421 12.8329 41.6421 13.5217C41.6421 14.2105 40.9897 14.6939 40.0628 14.6939H38.9419V14.6928ZM34.467 21.2324C34.467 21.6341 34.467 21.8349 34.5923 21.9597C34.7176 22.0846 34.9185 22.0846 35.3204 22.0846H41.0935C43.9597 22.0846 45.7287 20.8783 45.7287 18.7597C45.7287 17.33 44.8617 16.261 43.6865 15.907C43.6357 15.8922 43.6008 15.8457 43.6008 15.7935C43.6008 15.7436 43.6324 15.6993 43.6786 15.6823C44.6371 15.3169 45.3855 14.4023 45.3855 13.1609C45.3855 11.0934 43.6685 9.74982 40.7673 9.74982H35.3204C34.9185 9.74982 34.7176 9.74981 34.5923 9.87464C34.467 9.99946 34.467 10.2003 34.467 10.602V21.2324Z" fill="#2F42EE"/>
<path d="M52.7887 22.3433C56.2216 22.3433 58.5562 20.2757 58.5562 17.019V10.6009C58.5562 10.1992 58.5562 9.9983 58.4309 9.87348C58.3056 9.74866 58.1046 9.74866 57.7027 9.74866H55.7859C55.384 9.74866 55.1831 9.74866 55.0578 9.87348C54.9325 9.9983 54.9325 10.1992 54.9325 10.6009V16.8987C54.9325 18.3807 54.0745 19.3623 52.7865 19.3623C51.4815 19.3623 50.6405 18.3977 50.6405 16.8987V10.6009C50.6405 10.1992 50.6405 9.9983 50.5152 9.87348C50.3898 9.74866 50.1889 9.74866 49.787 9.74866H47.8713C47.4694 9.74866 47.2685 9.74866 47.1432 9.87348C47.0179 9.9983 47.0179 10.1992 47.0179 10.6009V17.019C47.0213 20.2757 49.3558 22.3433 52.7887 22.3433Z" fill="#2F42EE"/>
<path d="M63.9014 21.2323C63.9014 21.634 63.9014 21.8349 64.0267 21.9597C64.152 22.0845 64.353 22.0845 64.7549 22.0845H66.6706C67.0725 22.0845 67.2734 22.0845 67.3987 21.9597C67.524 21.8349 67.524 21.634 67.524 21.2323V18.0868C67.524 17.9847 67.524 17.9336 67.5353 17.8837C67.5477 17.8349 67.5703 17.7884 67.6177 17.6976L71.0585 10.9901C71.343 10.434 71.4864 10.156 71.3611 9.95291C71.2369 9.74866 70.9242 9.74866 70.2988 9.74866H68.4497C68.1754 9.74866 68.0377 9.74866 67.9304 9.82015C67.8232 9.89164 67.7701 10.0176 67.6629 10.2706L65.8228 14.6315C65.8025 14.6803 65.7551 14.7121 65.702 14.7121C65.6501 14.7121 65.6038 14.6814 65.5823 14.6349L63.6113 10.2525C63.5018 10.0085 63.4465 9.88596 63.3404 9.81788C63.2343 9.74979 63.1011 9.74979 62.8335 9.74979H61.0386C60.4075 9.74979 60.0926 9.74979 59.9673 9.95518C59.8431 10.1606 59.9899 10.4397 60.2834 10.998L63.8032 17.6953C63.8518 17.7884 63.8766 17.8349 63.889 17.8848C63.9014 17.9348 63.9014 17.987 63.9014 18.0925V21.2323Z" fill="#2F42EE"/>
<path d="M72.8229 21.2324C72.8229 21.6341 72.8229 21.8349 72.9482 21.9597C73.0735 22.0846 73.2745 22.0846 73.6764 22.0846H80.8967C81.2986 22.0846 81.4995 22.0846 81.6248 21.9597C81.7502 21.8349 81.7502 21.6341 81.7502 21.2324V19.8366C81.7502 19.4349 81.7502 19.2341 81.6248 19.1093C81.4995 18.9844 81.2986 18.9844 80.8967 18.9844H77.2978C76.8959 18.9844 76.695 18.9844 76.5697 18.8596C76.4444 18.7348 76.4444 18.5339 76.4444 18.1322V10.602C76.4444 10.2003 76.4444 9.99946 76.3191 9.87464C76.1938 9.74981 75.9928 9.74982 75.591 9.74982H73.6741C73.2722 9.74982 73.0713 9.74981 72.946 9.87464C72.8207 9.99946 72.8207 10.2003 72.8207 10.602V21.2324H72.8229Z" fill="#2F42EE"/>
<path d="M83.1161 21.2323C83.1161 21.634 83.1161 21.8349 83.2414 21.9597C83.3667 22.0845 83.5676 22.0845 83.9695 22.0845H85.8864C86.2883 22.0845 86.4892 22.0845 86.6145 21.9597C86.7398 21.8349 86.7398 21.634 86.7398 21.2323V10.6009C86.7398 10.1992 86.7398 9.9983 86.6145 9.87348C86.4892 9.74866 86.2883 9.74866 85.8864 9.74866H83.9695C83.5676 9.74866 83.3667 9.74866 83.2414 9.87348C83.1161 9.9983 83.1161 10.1992 83.1161 10.6009V21.2323Z" fill="#2F42EE"/>
<path d="M88.6984 21.2324C88.6984 21.6341 88.6984 21.8349 88.8237 21.9597C88.949 22.0846 89.15 22.0846 89.5519 22.0846H91.4687C91.8706 22.0846 92.0715 22.0846 92.1968 21.9597C92.3221 21.8349 92.3221 21.6341 92.3221 21.2324V16.9407C92.3221 16.8794 92.3718 16.8295 92.4339 16.8295C92.4712 16.8295 92.5061 16.8488 92.5276 16.8794L95.676 21.6976C95.7991 21.8871 95.8612 21.9813 95.956 22.0324C96.0508 22.0834 96.1637 22.0834 96.3895 22.0834H98.5558C99.2783 22.0834 99.6384 22.0834 99.7581 21.8531C99.8777 21.6227 99.6689 21.3288 99.2523 20.7387L95.9989 16.1351C95.8239 15.8877 95.737 15.764 95.7393 15.6244C95.7415 15.4848 95.8341 15.3646 96.0192 15.124L99.0966 11.1183C99.556 10.5203 99.7852 10.2219 99.6678 9.98469C99.5504 9.7464 99.1733 9.7464 98.4204 9.7464H96.3195C96.1028 9.7464 95.9944 9.7464 95.9018 9.79406C95.8093 9.84172 95.7472 9.93136 95.6219 10.1084L92.5287 14.5055C92.5073 14.5362 92.4734 14.5532 92.4362 14.5532C92.3741 14.5532 92.3233 14.5021 92.3233 14.4409V10.5997C92.3233 10.198 92.3233 9.99718 92.198 9.87235C92.0727 9.74753 91.8717 9.74753 91.4698 9.74753H89.553C89.1511 9.74753 88.9502 9.74753 88.8249 9.87235C88.6996 9.99718 88.6996 10.198 88.6996 10.5997V21.2324H88.6984Z" fill="#2F42EE"/>
<path d="M101.288 21.2323C101.288 21.634 101.288 21.8349 101.413 21.9597C101.538 22.0845 101.739 22.0845 102.141 22.0845H110.066C110.468 22.0845 110.669 22.0845 110.794 21.9597C110.919 21.8349 110.919 21.634 110.919 21.2323V20.0771C110.919 19.6754 110.919 19.4746 110.794 19.3498C110.669 19.225 110.468 19.2249 110.066 19.2249H105.643C105.241 19.2249 105.04 19.225 104.915 19.1001C104.789 18.9753 104.789 18.7745 104.789 18.3728V17.8894C104.789 17.4876 104.789 17.2868 104.915 17.162C105.04 17.0371 105.241 17.0372 105.643 17.0372H109.568C109.97 17.0372 110.171 17.0371 110.296 16.9123C110.421 16.7875 110.421 16.5867 110.421 16.185V15.5302C110.421 15.1285 110.421 14.9276 110.296 14.8028C110.171 14.678 109.97 14.678 109.568 14.678H105.643C105.241 14.678 105.04 14.678 104.915 14.5532C104.789 14.4284 104.789 14.2275 104.789 13.8258V13.4638C104.789 13.0621 104.789 12.8613 104.915 12.7364C105.04 12.6116 105.241 12.6116 105.643 12.6116H109.894C110.296 12.6116 110.497 12.6116 110.622 12.4868C110.748 12.362 110.748 12.1611 110.748 11.7594V10.6042C110.748 10.2025 110.748 10.0017 110.622 9.87687C110.497 9.75205 110.296 9.75204 109.894 9.75204H102.141C101.739 9.75204 101.538 9.75205 101.413 9.87687C101.288 10.0017 101.288 10.2025 101.288 10.6042V21.2323Z" fill="#2F42EE"/>
<path d="M23.585 24.2259C28.9213 19.0342 29.7321 11.1746 25.396 6.67114C21.0598 2.16763 13.2186 2.72551 7.88223 7.91721C2.54585 13.1089 1.73504 20.9684 6.07123 25.4719C10.4074 29.9754 18.2486 29.4176 23.585 24.2259Z" fill="#2F42EE"/>
<path d="M9.46792 13.8065C4.05494 16.5878 7.11759 24.9805 12.3883 23.4202L20.3786 21.0553C23.6241 20.0942 25.4856 13.8542 20.6495 11.4315C20.5219 11.368 20.3831 11.3192 20.2431 11.2863C19.1119 11.0207 18.5949 11.0094 18.8241 8.98272C19.1153 6.39095 15.6463 6.45562 15.2546 8.51633C14.7669 10.4783 14.6337 11.4951 13.8073 12.2962C13.5895 12.5073 13.3129 12.6343 13.0284 12.7183L9.83255 13.6636C9.7095 13.6999 9.5842 13.7464 9.46792 13.8065Z" fill="white"/>
</svg>
