<svg width="32" height="32" viewBox="0 0 32 32" fill="none" xmlns="http://www.w3.org/2000/svg">
<path d="M23.5848 24.2259C28.9212 19.0342 29.732 11.1747 25.3958 6.67117C21.0596 2.16766 13.2185 2.72554 7.8821 7.91724C2.54573 13.1089 1.73491 20.9685 6.0711 25.472C10.4073 29.9755 18.2485 29.4176 23.5848 24.2259Z" fill="#2F42EE"/>
<path d="M9.46774 13.8065C4.05476 16.5878 7.11741 24.9805 12.3882 23.4202L20.3784 21.0553C23.6239 20.0942 25.4854 13.8542 20.6493 11.4315C20.5217 11.368 20.3829 11.3192 20.2429 11.2863C19.1118 11.0207 18.5947 11.0094 18.8239 8.98272C19.1152 6.39095 15.6461 6.45562 15.2544 8.51633C14.7667 10.4783 14.6335 11.4951 13.8072 12.2962C13.5893 12.5073 13.3127 12.6343 13.0282 12.7183L9.83237 13.6636C9.70932 13.6999 9.58401 13.7464 9.46774 13.8065Z" fill="white"/>
</svg>
