<svg width="16" height="16" viewBox="0 0 16 16" fill="none" xmlns="http://www.w3.org/2000/svg">
<path d="M2.09606 4.40674C2.3183 5.63711 2.91567 6.73708 3.7655 7.58384M13.9041 4.40674C13.6818 5.63711 13.0843 6.73708 12.2344 7.58384M5.58439 12.3487L6.50012 9.14437M6.50012 9.14437C6.97952 9.26777 7.48212 9.3334 8.00006 9.3334C8.51787 9.3334 9.0204 9.26777 9.49975 9.14437M6.50012 9.14437C5.44965 8.87398 4.51056 8.32622 3.7655 7.58384M1.40039 9.93307L3.7655 7.58384M10.4157 12.3491L9.49975 9.14437M9.49975 9.14437C10.5501 8.87398 11.4893 8.32622 12.2344 7.58384M14.5997 9.93307L12.2344 7.58384" stroke="#0A0C20" stroke-linecap="round" stroke-linejoin="round"/>
</svg>
