<svg width="150" height="40" viewBox="0 0 150 40" fill="none" xmlns="http://www.w3.org/2000/svg"><path d="M48.6776 24.3319C48.1752 24.3319 47.9241 24.3319 47.7674 24.1759C47.6108 24.0199 47.6108 23.7688 47.6108 23.2667V22.2326C47.6108 21.7305 47.6108 21.4795 47.7674 21.3234C47.9241 21.1674 48.1752 21.1674 48.6776 21.1674H50.3794C51.5816 21.1674 52.4819 21.8355 52.4819 22.739C52.4819 23.6653 51.5802 24.3334 50.3794 24.3334H48.6776V24.3319ZM48.6776 18.366C48.1752 18.366 47.9241 18.366 47.7674 18.2099C47.6108 18.0539 47.6108 17.8029 47.6108 17.3007V16.5248C47.6108 16.0227 47.6108 15.7717 47.7674 15.6156C47.9241 15.4596 48.1752 15.4596 48.6776 15.4596H50.0788C51.2373 15.4596 52.0529 16.0412 52.0529 16.9021C52.0529 17.7631 51.2373 18.3674 50.0788 18.3674H48.6776V18.366ZM43.084 26.5404C43.084 27.0426 43.084 27.2936 43.2406 27.4497C43.3972 27.6057 43.6484 27.6057 44.1508 27.6057H51.3671C54.9499 27.6057 57.1611 26.0979 57.1611 23.4497C57.1611 21.6624 56.0774 20.3263 54.6084 19.8837C54.5449 19.8653 54.5012 19.8071 54.5012 19.7419C54.5012 19.6795 54.5407 19.6241 54.5986 19.6029C55.7966 19.1461 56.7321 18.0029 56.7321 16.4511C56.7321 13.8667 54.5859 12.1873 50.9593 12.1873H44.1508C43.6484 12.1873 43.3972 12.1873 43.2406 12.3433C43.084 12.4993 43.084 12.7504 43.084 13.2525V26.5404Z" fill="#2F42EE"/><path d="M65.986 27.9291C70.2772 27.9291 73.1953 25.3447 73.1953 21.2737V13.251C73.1953 12.7489 73.1953 12.4978 73.0387 12.3418C72.8821 12.1858 72.6309 12.1858 72.1285 12.1858H69.7325C69.2301 12.1858 68.979 12.1858 68.8223 12.3418C68.6657 12.4978 68.6657 12.7489 68.6657 13.251V21.1234C68.6657 22.9759 67.5933 24.2028 65.9832 24.2028C64.352 24.2028 63.3007 22.9971 63.3007 21.1234V13.251C63.3007 12.7489 63.3007 12.4978 63.144 12.3418C62.9874 12.1858 62.7362 12.1858 62.2339 12.1858H59.8393C59.3369 12.1858 59.0857 12.1858 58.9291 12.3418C58.7725 12.4978 58.7725 12.7489 58.7725 13.251V21.2737C58.7767 25.3447 61.6949 27.9291 65.986 27.9291Z" fill="#2F42EE"/><path d="M79.8764 26.5404C79.8764 27.0425 79.8764 27.2936 80.033 27.4496C80.1897 27.6057 80.4408 27.6056 80.9432 27.6056H83.3378C83.8402 27.6056 84.0914 27.6057 84.248 27.4496C84.4046 27.2936 84.4046 27.0425 84.4046 26.5404V22.6085C84.4046 22.4808 84.4046 22.417 84.4187 22.3546C84.4342 22.2936 84.4625 22.2354 84.5217 22.122L88.8228 13.7376C89.1784 13.0425 89.3576 12.695 89.201 12.4411C89.0457 12.1858 88.6549 12.1858 87.8731 12.1858H85.5617C85.2188 12.1858 85.0467 12.1858 84.9126 12.2752C84.7786 12.3645 84.7122 12.522 84.5782 12.8383L82.2781 18.2893C82.2527 18.3503 82.1934 18.39 82.1271 18.39C82.0622 18.39 82.0043 18.3517 81.9775 18.2936L79.5137 12.8156C79.3769 12.5106 79.3077 12.3574 79.1751 12.2723C79.0424 12.1872 78.8759 12.1872 78.5415 12.1872H76.2978C75.509 12.1872 75.1153 12.1872 74.9587 12.4439C74.8035 12.7007 74.9869 13.0496 75.3538 13.7475L79.7536 22.1191C79.8143 22.2354 79.8454 22.2936 79.8609 22.356C79.8764 22.4184 79.8764 22.4837 79.8764 22.6156V26.5404Z" fill="#2F42EE"/><path d="M91.0282 26.5404C91.0282 27.0426 91.0282 27.2936 91.1848 27.4497C91.3415 27.6057 91.5927 27.6057 92.095 27.6057H101.12C101.623 27.6057 101.874 27.6057 102.031 27.4497C102.187 27.2936 102.187 27.0426 102.187 26.5404V24.7958C102.187 24.2936 102.187 24.0426 102.031 23.8865C101.874 23.7305 101.623 23.7305 101.12 23.7305H96.6218C96.1195 23.7305 95.8683 23.7305 95.7117 23.5745C95.555 23.4185 95.555 23.1674 95.555 22.6653V13.2525C95.555 12.7504 95.555 12.4993 95.3984 12.3433C95.2418 12.1873 94.9906 12.1873 94.4882 12.1873H92.0922C91.5898 12.1873 91.3387 12.1873 91.182 12.3433C91.0254 12.4993 91.0254 12.7504 91.0254 13.2525V26.5404H91.0282Z" fill="#2F42EE"/><path d="M103.896 26.5404C103.896 27.0425 103.896 27.2936 104.052 27.4496C104.209 27.6057 104.46 27.6056 104.962 27.6056H107.358C107.861 27.6056 108.112 27.6057 108.269 27.4496C108.425 27.2936 108.425 27.0425 108.425 26.5404V13.251C108.425 12.7489 108.425 12.4978 108.269 12.3418C108.112 12.1858 107.861 12.1858 107.358 12.1858H104.962C104.46 12.1858 104.209 12.1858 104.052 12.3418C103.896 12.4978 103.896 12.7489 103.896 13.251V26.5404Z" fill="#2F42EE"/><path d="M110.873 26.5405C110.873 27.0427 110.873 27.2937 111.03 27.4498C111.186 27.6058 111.437 27.6058 111.94 27.6058H114.336C114.838 27.6058 115.089 27.6058 115.246 27.4498C115.403 27.2937 115.403 27.0427 115.403 26.5405V21.176C115.403 21.0994 115.465 21.037 115.542 21.037C115.589 21.037 115.633 21.0611 115.66 21.0994L119.595 27.1221C119.749 27.359 119.826 27.4767 119.945 27.5405C120.064 27.6044 120.205 27.6044 120.487 27.6044H123.195C124.098 27.6044 124.548 27.6044 124.698 27.3164C124.847 27.0285 124.586 26.6611 124.065 25.9235L119.999 20.1689C119.78 19.8597 119.671 19.7051 119.674 19.5306C119.677 19.3562 119.793 19.2058 120.024 18.9051L123.871 13.898C124.445 13.1505 124.731 12.7774 124.585 12.481C124.438 12.1831 123.967 12.1831 123.025 12.1831H120.399C120.128 12.1831 119.993 12.1831 119.877 12.2427C119.762 12.3023 119.684 12.4143 119.527 12.6356L115.661 18.132C115.634 18.1703 115.592 18.1916 115.545 18.1916C115.468 18.1916 115.404 18.1278 115.404 18.0512V13.2498C115.404 12.7476 115.404 12.4966 115.247 12.3406C115.091 12.1845 114.84 12.1845 114.337 12.1845H111.941C111.439 12.1845 111.188 12.1845 111.031 12.3406C110.874 12.4966 110.874 12.7476 110.874 13.2498V26.5405H110.873Z" fill="#2F42EE"/><path d="M126.609 26.5403C126.609 27.0424 126.609 27.2935 126.766 27.4495C126.923 27.6055 127.174 27.6055 127.676 27.6055H137.582C138.084 27.6055 138.336 27.6055 138.492 27.4495C138.649 27.2935 138.649 27.0424 138.649 26.5403V25.0963C138.649 24.5942 138.649 24.3431 138.492 24.1871C138.336 24.0311 138.084 24.0311 137.582 24.0311H132.053C131.551 24.0311 131.3 24.0311 131.143 23.875C130.987 23.719 130.987 23.468 130.987 22.9658V22.3616C130.987 21.8594 130.987 21.6084 131.143 21.4524C131.3 21.2963 131.551 21.2963 132.053 21.2963H136.96C137.462 21.2963 137.713 21.2963 137.87 21.1403C138.027 20.9843 138.027 20.7332 138.027 20.2311V19.4126C138.027 18.9105 138.027 18.6594 137.87 18.5034C137.713 18.3474 137.462 18.3474 136.96 18.3474H132.053C131.551 18.3474 131.3 18.3474 131.143 18.1914C130.987 18.0353 130.987 17.7843 130.987 17.2821V16.8297C130.987 16.3275 130.987 16.0765 131.143 15.9204C131.3 15.7644 131.551 15.7644 132.053 15.7644H137.368C137.87 15.7644 138.121 15.7644 138.278 15.6084C138.434 15.4524 138.434 15.2013 138.434 14.6992V13.2552C138.434 12.7531 138.434 12.502 138.278 12.346C138.121 12.1899 137.87 12.1899 137.368 12.1899H127.676C127.174 12.1899 126.923 12.1899 126.766 12.346C126.609 12.502 126.609 12.7531 126.609 13.2552V26.5403Z" fill="#2F42EE"/><path d="M29.4809 30.2822C36.1513 23.7926 37.1649 13.9682 31.7446 8.33881C26.3244 2.70942 16.5229 3.40677 9.85245 9.89639C3.18198 16.386 2.16846 26.2104 7.5887 31.8398C13.0089 37.4692 22.8104 36.7718 29.4809 30.2822Z" fill="#2F42EE"/><path d="M11.8345 17.2582C5.06826 20.7348 8.89658 31.2255 15.485 29.2752L25.4728 26.3192C29.5297 25.1177 31.8566 17.3177 25.8114 14.2894C25.652 14.2099 25.4784 14.1489 25.3034 14.1078C23.8895 13.7759 23.2432 13.7617 23.5297 11.2284C23.8938 7.98865 19.5574 8.0695 19.0678 10.6454C18.4582 13.0979 18.2917 14.3688 17.2588 15.3702C16.9864 15.634 16.6407 15.7929 16.2851 15.8979L12.2903 17.0794C12.1365 17.1248 11.9798 17.183 11.8345 17.2582Z" fill="white"/></svg>